<?xml version="1.0" encoding="UTF-8"?>
<svg id="Layer_1" xmlns="http://www.w3.org/2000/svg" version="1.1" viewBox="0 0 288 288">
  <!-- Generator: Adobe Illustrator 29.0.0, SVG Export Plug-In . SVG Version: 2.1.0 Build 186)  -->
  <defs>
    <style>
      .st0 {
        fill: #235865;
      }

      .st1 {
        fill: #ecf4f2;
      }

      .st2 {
        fill: #e8b884;
      }

      .st3 {
        fill: #9ad9d3;
      }

      .st4 {
        fill: #eef6f4;
      }

      .st5 {
        fill: #f3f5f6;
      }

      .st6 {
        fill: #eef5f4;
      }

      .st7 {
        fill: #f5f8f8;
      }

      .st8 {
        fill: #f9fafa;
      }

      .st9 {
        fill: #eff6f4;
      }

      .st10 {
        fill: #99d9d2;
      }

      .st11 {
        fill: #edf5f3;
      }

      .st12 {
        fill: #9cdbd5;
      }

      .st13 {
        fill: #9cdbd4;
      }

      .st14 {
        fill: #9bdbd4;
      }

      .st15 {
        fill: #245865;
      }

      .st16 {
        fill: #9bdad4;
      }

      .st17 {
        fill: #e7f0ef;
      }

      .st18 {
        fill: #dae3e5;
      }

      .st19 {
        fill: #fbc4e1;
      }

      .st20 {
        fill: #f0f3f4;
      }

      .st21 {
        fill: #ebf3f2;
      }

      .st22 {
        fill: #edf5f4;
      }

      .st23 {
        fill: #1e5562;
      }

      .st24 {
        fill: #f7f9f9;
      }

      .st25 {
        fill: #9cdcd5;
      }

      .st26 {
        fill: #fcfdfd;
      }

      .st27 {
        fill: #ecf4f3;
      }
    </style>
  </defs>
  <path class="st9" d="M247.4,144.5c0,57.1-46.5,103.4-103.6,103.4-57.1,0-103.3-46.7-103.2-104.1.1-57,46.6-103.3,103.7-103.2,56.9,0,103.1,46.7,103.1,103.9h0Z"/>
  <path class="st23" d="M144.1,46.7c53.8,0,97.2,43.7,97.1,97.6,0,53.9-43.5,97.4-97.3,97.4-53.8,0-97.2-43.6-97.1-97.6,0-53.9,43.5-97.4,97.3-97.4Z"/>
  <path class="st25" d="M144,169.9c-15.6,0-31.2,0-46.8,0-2.7,0-3.3-.8-3.3-3.4.2-9.1.1-18.2,0-27.3,0-2.7,1-3.5,3.5-3.5,25.5,0,50.9,0,76.4,0,1.2,0,2.3,0,3.4.6.9.6,1.8,1.5,1.5,2.5-.3,1-1.5.5-2.3.5-4.9,0-7.4,2.7-7.4,7.7s0,6.1,0,9.2c0,4.5,1.9,6.3,6.3,6.3,1.1,0,2.1.2,3.1,0,5.3-.9,9.6,1.7,14,4,1.1.6,1.7,1.4,1.4,2.5-.3,1.1-1.4.7-2.2.7-15.9,0-31.8,0-47.7,0h0Z"/>
  <path class="st25" d="M144.2,173.5c15.6,0,31.2,0,46.8,0,2.4,0,3.3.6,3,3-.2,1.3,0,2.7,0,4,0,1.4.6,3.3-1.8,3.6-1.9.2-3.6.5-4.6-2-1.4-3.4-4.4-5-8.1-5-3.6,0-6.3,1.8-7.8,5-.8,1.7-1.7,2.1-3.5,2.1-13.3,0-26.6,0-39.9,0-1.6,0-2.5-.4-3.2-2-1.5-3.3-4.3-5.1-8-5.1-3.7,0-6.5,1.8-8,5.1-.7,1.6-1.7,2.1-3.3,2-3,0-5.9-.1-8.9,0-2.2,0-3.1-.7-3.1-3-.1-7.7-.2-7.7,7.5-7.7h42.8Z"/>
  <path class="st19" d="M161.9,114c0,4.7-2.9,9-7.4,10.6-1.4.5-2.6.9-3.4,2.6-.8,1.8-3,1.8-4,.1-1-1.7-2.4-1.7-3.9-1.8-9.9-1-19.8-2-29.7-3-.8,0-2.2.4-2.4-.9-.2-1.2,1.1-1.4,1.9-1.8,8.9-4.7,17.9-9.4,26.9-14.1,1.1-.6,2-1.1,2.3-2.6.5-2.1,2.4-2.8,3.9-1.4,1.2,1.2,2.4,1.1,3.9,1.1,6.6-.2,11.7,4.8,11.8,11.4h0Z"/>
  <path class="st25" d="M178,159.1h-1.1c-4.2,0-4.2,0-4.2-4.1s0-6.5,0-9.8c0-1.5.3-2.2,2-2.2,5.2-.1,5.1-.2,6.1,4.9.5,2.6,1,5.3,1.6,7.9.5,2.2-.5,3.4-2.9,3.4h-1.4Z"/>
  <path class="st1" d="M178.2,91.6c.4-2.5.9-5,1.3-7.8-2.7,1.2-4.2,3.6-6.5,4.7-.7-.5-.2-1,0-1.5,1.8-5.6,3.7-11.3,5.6-16.9.2-.7,0-2.2,1.6-1.6,1.4.5,1.1,1.4.7,2.5-1.2,3.5-2.4,7-3.7,10.8,2.2-.8,3.2-2.9,5.4-3.7-.4,2.2-.7,4.1-1,6.1.1,0,.3.2.4.2,2.4-2.8,4.8-5.5,7.1-8.3.9-1,1.7-2,2.9-.8,1.1,1.2-.4,1.8-.9,2.4-4.1,4.7-8.2,9.3-12.3,13.9l-.7-.2h0Z"/>
  <path class="st6" d="M138.5,81.7c-2.8-3.3-5.6-6.6-8.7-10.3-.1,4,.9,7.2,1.2,10.5,0,1,0,1.7-1.1,1.8-1.1.1-1.2-.7-1.3-1.5-1-6.4-1.9-12.8-3-20,3.5,4.1,6.4,7.6,9.9,11.7-.6-3.8-1.2-6.9-1.6-9.9-.1-.9-.8-2.3.7-2.6,1.9-.5,1.5,1.1,1.7,2.2.9,5.9,1.9,11.8,2.9,17.7-.2.1-.4.2-.6.3Z"/>
  <path class="st4" d="M63.9,120.9c2.7.9,5.4,1.9,8,2.9,1.6.6,2.6.4,3.1-1.4.5-1.6.5-2.6-1.5-3.1-2.4-.6-4.7-1.6-7-2.4-.9-.3-2.1-.4-1.7-1.8.4-1.4,1.4-.9,2.3-.6,5.5,1.9,11,3.7,16.4,5.6.8.3,2.1.3,1.5,1.8-.6,1.5-1.5.7-2.3.4-.8-.3-1.7-.4-2.4-.8-2.1-1.1-2.9,0-3.4,1.8-.3,1.2-.4,2.2,1.3,2.5,1.3.2,2.5.8,3.8,1.3.8.3,1.2.8.8,1.8-.4.8-.9.8-1.6.5-5.8-2-11.7-4-17.5-6-.8-.3-1.4-.6-1.1-1.7.2-.6.6-1,1.3-.9h0Z"/>
  <path class="st12" d="M174.4,186c0-3.2,2.3-5.5,5.4-5.4,3,0,5.2,2.4,5.2,5.4,0,3-2.2,5.3-5.2,5.4-3.1.1-5.5-2.2-5.5-5.4h0Z"/>
  <path class="st14" d="M117.1,180.6c3,0,5.3,2.1,5.5,5.1.2,3.1-2.2,5.6-5.2,5.6-3,0-5.3-2.1-5.5-5.1-.1-3.1,2.1-5.6,5.2-5.6h0Z"/>
  <path class="st7" d="M150.7,215.5c0,2.3-.2,4.6-1.2,6.8-.7,1.5-1.8,2.5-3.6,2.5s-3-.9-3.5-2.5c-1.6-4.4-1.6-8.8,0-13.2.6-1.5,1.8-2.5,3.5-2.5s2.8,1,3.6,2.5c1,2,1.1,4.2,1.2,6.5h0Z"/>
  <path class="st11" d="M201.6,83.4c.6,0,4.7,4.5,4.6,4.8-.2.4-.5.8-.8,1.1-.6.5-1,0-1.5-.4-.9-.6-1.6-2.5-2.6-1.8-1.9,1.3-3.5,3.2-5,5-.6.8.7,1.4,1.2,2,.5.6.8,1,.2,1.7-.7.8-1.4.6-1.9-.1-2.3-3-3.2,0-4.5,1-2,1.4-.7,2.5.4,3.6.6.6,1.4,1.2.4,2.1-1,1-1.5,0-2.1-.5-2.6-2.3-2.6-4.8-.1-7.3,3.4-3.4,6.8-6.8,10.1-10.1.5-.5,1-.8,1.4-1.2h0Z"/>
  <path class="st11" d="M165.3,78.4c0,2.7-.7,4.6-2.8,5.7-2.1,1.1-4.1.3-5.9-.8-.8-.4-1.2-1-.6-1.8.5-.7,1-1.2,1.8-.4,1.2,1.1,2.6,1.5,3.9.5,1.5-1.2,1.2-2.9.6-4.5-.9-2.4-2-4.8-2.7-7.2-.6-2.1-.2-4.2,1.8-5.6,1.9-1.4,3.8-1,5.6,0,.7.4,1.5.7.8,1.7-.5.7-1,1-1.9.3-1-.7-2.2-.7-3.1.2-1,1-1,2.2-.6,3.4,1,3,2.7,5.7,3.1,8.5h0Z"/>
  <path class="st11" d="M199.1,110.1c.8,1.1,1.4,1.9,1.9,2.8.4.6.6,1.2-.3,1.7-.7.4-1.2.5-1.7-.2-.9-1.4-1.7-2.8-2.5-4.2-.6-.9,0-1.3.8-1.8,5.2-3.2,10.4-6.4,15.5-9.7.9-.5,1.5-.7,2,.4.7,1.3,1.4,2.5,2.2,3.6.6.8.4,1.4-.4,1.9-.8.5-1.1,0-1.6-.6-.7-.8-.9-2.8-2.1-2.3-2.2.8-4.2,2.2-6.1,3.7-.8.6.5,1.7.9,2.4.4.7.5,1.2-.3,1.7-.7.4-1.4.4-1.7-.4-1.1-2.9-2.6-1.8-4.3-.6-.8.6-1.6,1-2.6,1.6h0Z"/>
  <path class="st11" d="M226,139.9c.2-1.2,0-2.1-1.1-2.8-1.1-.7-2.3-.4-3.2.4-2.1,1.6-4.1,3.5-6.1,5.1-2.2,1.7-4.7,1.8-7,.4-2.4-1.4-2.3-3.8-1.7-6.1.1-.6.1-1.7,1.3-1.3.9.3,1.6.7,1.2,1.9-.5,1.3-.7,2.8.7,3.6,1.5.9,3,.3,4.3-.7,1.4-1,2.6-2.2,3.8-3.4,1.5-1.5,3.2-2.4,5.3-2.5,3.3-.2,5.7,2.8,4.9,6-.2.6,0,1.8-1.3,1.4-.9-.2-1.6-.7-1-1.8h0Z"/>
  <path class="st1" d="M221.6,120.7c-.6.2-1.1.4-1.7.6-4,1.3-7.9,2.8-11.9,3.9-1.3.4-3.2,2.2-3.9.1-.8-2.3,1.9-1.9,3-2.3,4.1-1.6,8.2-2.8,12.4-4.2,1.2-.4,2.5-.8,1.5-2.5-.5-.8,0-1.5.8-1.8,1-.3,1.3.3,1.5,1.2.6,1.9,1.2,3.8,1.9,5.7.3.8.4,1.5-.5,1.9-.9.3-1.4,0-1.6-1-.1-.7-.4-1.5-1.4-1.5h0Z"/>
  <path class="st21" d="M71.4,144.8c-2.3-.3-4.9-.5-7.3-1.4-3.3-1.2-4.9-4-4.1-6.9.2-.6.2-1.3.9-1.2.5,0,1.3.7,1.3,1,0,5.7,4.6,4.9,7.9,5.8,2,.5,4.2,0,6.2-.6,1.4-.5,2.6-1.2,2.6-3,0-1.1.8-1.6,1.7-1.5,1,.1.8,1.2.8,1.9,0,2.5-1.2,4.1-3.6,4.9-2,.7-4.1,1-6.4,1.1h0Z"/>
  <path class="st20" d="M157,224.6c-2.6,0-3.4-1.2-2.3-3.6,1.3-2.8,2.7-5.5,3.7-8.4,1.1-2.9,0-4.2-3.1-3.7-.8.1-1.3.3-1.6-.5-.4-.9.4-1.2,1-1.4,1.7-.8,3.4-.6,4.8.6,1.6,1.3,1.8,3.1,1.2,5-.8,2.9-2.3,5.4-3.7,8.1-.7,1.4-.8,2,1.1,2,1,0,2.8-.8,2.8.9,0,1.9-1.9.8-3,1.1-.4.1-.8,0-1.1,0h0Z"/>
  <path class="st5" d="M133.6,222.6h3.5c.7,0,1.4.1,1.3,1.1,0,.7-.6.9-1.2.9-.1,0-.2,0-.3,0-2.1-.2-4.8.9-6-.5-.9-1.1,1.2-3.3,1.9-5,.9-2.2,2.1-4.3,2.9-6.6,1-2.9-.1-4.1-3.1-3.7-.7.1-1.3.3-1.6-.5-.4-.9.4-1.1,1-1.4,1.7-.7,3.4-.7,4.9.5,1.6,1.4,1.9,3.4,1.2,5.2-1.3,3.2-2.7,6.3-4.3,9.8h0Z"/>
  <path class="st22" d="M95.6,76c1,0,1.3,1,1.7,1.7,2.6,3.8,5.2,7.5,7.6,11.4,1.2,2,2.3,2.5,4.1.8.4-.4.9-.8,1.4-1,.8-.4,1.6.2,1.5.8-.4,2.5-3.1,2.6-4.6,4.1-.6.6-1.3,1.1-2.1,0-3.5-5.2-7.1-10.4-10.6-15.6-.8-1.2,0-1.7.9-2.2Z"/>
  <path class="st6" d="M81.3,88.1c.9.7,1.4,1.1,1.9,1.5,3.6,3.3,7.2,6.6,10.7,10,1.4,1.4,2.3,1.4,3.4-.2.4-.6.9-1,1.3-1.5.5-.5,1-.4,1.5,0,.4.4.9.8.3,1.4-.1.1-.3.3-.4.4-2.7,3.4-5.6,3.6-8.7.7-3.3-3.2-6.7-6.3-10-9.5-.4-.4-1.2-.8-.8-1.6.2-.4.5-.8.8-1.3h0Z"/>
  <path class="st27" d="M72.9,100.6c.4.2.8.5,1.3.8,4.9,3,9.8,6,14.6,9,.7.4,2,.6,1.2,2-.8,1.4-1.7.4-2.4,0-5-3.1-10-6.2-15.1-9.3-.5-.3-1.4-.4-1-1.4.2-.5.6-1,1.4-1.1h0Z"/>
  <path class="st26" d="M167,206.8v16.2c0,.7,0,1.4-1,1.5-1.1,0-1.1-.8-1.1-1.6,0-4.4,0-8.8,0-13.2,0-1.2.6-1.9,2.1-2.9h0Z"/>
  <path class="st3" d="M124.4,128.2c0,1,0,1.8,0,2.5,0,.6,0,1.2-.8,1.3-.8.1-2.1.5-2.4-.3-.8-2.1-.6-4.3-.1-6.5.2-1,1.5-.5,2.3-.3,1.9.6.6,2.3,1,3.2h0Z"/>
  <path class="st18" d="M118,215.3c1,3.3,1.3,3.4,3.8,1.5.8-.6,1.5-1.2,2.4-1.5,2-.8,3.8.6,3.6,2.7,0,.6,0,1.5-.9,1.5-.8,0-.5-.8-.5-1.4,0-1.9-1.2-1.8-2.3-1.2-1.1.6-2,1.5-3,2.1-1.1.7-2.2.8-3.2-.1-1-1-1.1-2.1,0-3.6h0Z"/>
  <path class="st10" d="M158.4,128.9c-.4,1.4.8,3.4-1.9,3.3-2.3,0-1.5-1.6-1.7-2.8-.3-2.1.6-3.5,2.7-3.3,2,.1.3,2,1,2.8h0Z"/>
  <path class="st8" d="M128.3,211.8c-3.8,1.7-7.6-.8-10.5,2.2-.7-1.5-.5-2.9-.1-4.4,2.9,3.1,6.8.5,10.7,2.2Z"/>
  <path class="st24" d="M127.2,221.1c1.3,2.9,1,3.5-1.7,3.5-1.8,0-3.6-.1-5.4,0-3.1.3-2.8-1.4-2.4-3.7,1.3.7.8,2.8,2.8,2.6,1.5-.2,2.2-.7,2.4-2.3.9,1,.8,2.4,2.4,2.3,1.8,0,.9-1.9,1.9-2.4h0Z"/>
  <path class="st17" d="M114.4,70.9c-.2.7-.2,1.4-.4,2-.2.6-.4,1.1-1.2.9-.6-.2-.6-.7-.4-1.2.2-.8.4-1.6-.6-1.9-1.3-.4-1.6-1.2-1.1-2.4.3-.8,1-.8,1.7-.8,1.4,0,1.7,1,2,2.1.1.4,0,.9.1,1.4h0Z"/>
  <path class="st23" d="M121,139.4c4.3,0,8.6.1,12.9,0,2.8,0,4.8.9,6.3,3.1.9,1.3,1.9,2.4,2.8,3.6,1.9,2.6.9,5.3-2.3,5.6-1.9.2-2.2,1-2.1,2.6,0,1.2,0,2.5-.1,3.7-.4,2.7-2.4,4.5-5.1,4.6-8.4,0-16.8,0-25.2,0-2.9,0-4.8-1.8-5.2-4.7-.2-1.2-.2-2.5-.1-3.7,0-1.5-.3-2.2-2-2.4-3.4-.4-4.3-3-2.3-5.8.2-.3.5-.6.7-.9,2.6-4.6,6.5-6.3,11.7-5.7,3.3.4,6.7,0,10,0h0Z"/>
  <path class="st23" d="M165.4,151.2c0,2.4,0,4.8,0,7.2,0,3-1.2,4.2-4.2,4.2-3.2,0-6.3,0-9.5,0-2.8,0-4.1-1.3-4.2-4,0-5.1,0-10.2,0-15.2,0-2.5,1.4-3.9,3.9-3.9,3.4,0,6.7,0,10,0,2.6,0,3.8,1.4,3.8,4v7.8h0Z"/>
  <path class="st15" d="M149.8,124.8c0,.6.2,1.3-.6,1.5-.9.2-1.1-.5-1.2-1.2-1.3-6.8-2.7-13.7-4-20.5-.1-.6-.2-1.5.7-1.6.6,0,.9.5,1.1,1.1,1.4,6.9,2.7,13.8,4,20.7Z"/>
  <path class="st0" d="M148.5,215.5c0,2,0,3.8-.6,5.6-.3.8-.7,1.6-1.7,1.7-1,0-1.6-.7-1.9-1.5-1.1-3.7-1.1-7.4,0-11,.2-.9.8-1.6,1.8-1.6,1,0,1.5.8,1.8,1.6.6,1.7.8,3.6.7,5.2h0Z"/>
  <path class="st16" d="M120.9,151.9c3.9,0,7.8,0,11.8,0,1.6,0,2.7.4,2.4,2.2-.3,1.8,1.2,4.9-2.2,5-8,.2-16.1,0-24.1,0-1.4,0-2-.7-2.2-2.1-.6-4.7-.3-5.1,4.3-5.1h10.1,0Z"/>
  <path class="st25" d="M113.3,148.3c1.3-2.1,1.7-4.7,3.6-5.1,2.5-.6,5.4-.5,7.9,0,1.5.3,2.1,2.6,2.8,4.1.5,1.1-.7.9-1.2.9-4.2,0-8.3,0-13.1,0h0Z"/>
  <path class="st13" d="M130,143.2c4.5-1.1,7.8.2,9.7,4.6-5.7,1.7-8.3.5-9.7-4.6Z"/>
  <path class="st14" d="M111.8,143.3c-2.5,5.5-3.2,5.8-9.8,4.7,2.6-5,3.8-5.6,9.8-4.7Z"/>
  <path class="st25" d="M161.8,151.5c-.2,2.1,1.1,5.4-.5,7-1.7,1.7-5.1.3-7.7.6-1.8.2-2.6-.4-2.5-2.4.1-3.9,0-7.9,0-11.8,0-1.5.5-2.1,2-2,2.3,0,4.6.1,6.9,0,1.6,0,1.9.7,1.9,2.1,0,2,0,4,0,6.5h0Z"/>
  <polygon class="st2" points="142 104.1 146.4 126.3 113.7 122.4 112.6 122.4 112.2 122.4 111.9 122.4 111.8 122.3 111.6 122.2 111.4 122.1 111.3 121.8 111.2 121.5 111.2 121.2 111.2 121 111.3 120.7 111.4 120.6 111.5 120.5 112.1 120.1 142 104.1"/>
</svg>