<?xml version="1.0" encoding="UTF-8"?>
<svg id="Text" xmlns="http://www.w3.org/2000/svg" viewBox="0 0 1045.09 302.94">
  <defs>
    <style>
      .cls-1 {
        fill: #ffcb48;
      }
    </style>
  </defs>
  <g>
    <path class="cls-1" d="M329.21,180.31c0,10.32-8.08,16.34-23.56,16.34h-29.93v-60.2h28.21c14.45,0,22.19,6.11,22.19,15.65,0,6.19-3.1,10.75-7.74,13.24,6.45,2.06,10.84,7.14,10.84,14.96ZM286.89,145.22v16.6h15.82c7.74,0,12.13-2.75,12.13-8.26s-4.39-8.34-12.13-8.34h-15.82ZM317.94,179.19c0-6.02-4.56-8.69-12.99-8.69h-18.06v17.37h18.06c8.43,0,12.99-2.67,12.99-8.69Z"/>
    <path class="cls-1" d="M385.02,150.73v45.92h-10.23v-5.93c-3.61,4.39-8.94,6.54-15.22,6.54-13.42,0-23.22-9.29-23.22-23.56s9.8-23.48,23.22-23.48c5.85,0,11.01,1.98,14.71,6.11v-5.59h10.75ZM374.44,173.69c0-8.77-5.85-14.36-13.67-14.36s-13.59,5.59-13.59,14.36,5.85,14.36,13.59,14.36,13.67-5.59,13.67-14.36Z"/>
    <path class="cls-1" d="M444.36,170.33v26.32h-10.75v-24.94c0-8.17-4.04-12.13-10.92-12.13-7.65,0-12.81,4.64-12.81,13.85v23.22h-10.75v-45.92h10.23v5.93c3.53-4.21,9.12-6.45,15.82-6.45,11.01,0,19.18,6.28,19.18,20.12Z"/>
    <path class="cls-1" d="M503.35,150.73v45.92h-10.23v-5.93c-3.61,4.39-8.94,6.54-15.22,6.54-13.42,0-23.22-9.29-23.22-23.56s9.8-23.48,23.22-23.48c5.85,0,11.01,1.98,14.71,6.11v-5.59h10.75ZM492.77,173.69c0-8.77-5.85-14.36-13.67-14.36s-13.59,5.59-13.59,14.36,5.85,14.36,13.59,14.36,13.67-5.59,13.67-14.36Z"/>
    <path class="cls-1" d="M562.69,170.33v26.32h-10.75v-24.94c0-8.17-4.04-12.13-10.92-12.13-7.65,0-12.81,4.64-12.81,13.85v23.22h-10.75v-45.92h10.23v5.93c3.53-4.21,9.12-6.45,15.82-6.45,11.01,0,19.18,6.28,19.18,20.12Z"/>
    <path class="cls-1" d="M621.69,150.73v45.92h-10.23v-5.93c-3.61,4.39-8.94,6.54-15.22,6.54-13.42,0-23.22-9.29-23.22-23.56s9.8-23.48,23.22-23.48c5.85,0,11.01,1.98,14.71,6.11v-5.59h10.75ZM611.11,173.69c0-8.77-5.85-14.36-13.67-14.36s-13.59,5.59-13.59,14.36,5.85,14.36,13.59,14.36,13.67-5.59,13.67-14.36Z"/>
    <path class="cls-1" d="M699.94,196.65l-12.3-17.63c-.77.09-1.55.09-2.32.09h-13.59v17.54h-11.18v-60.2h24.77c15.82,0,25.63,8.08,25.63,21.41,0,9.12-4.64,15.82-12.81,19.01l13.85,19.78h-12.04ZM684.81,145.91h-13.07v23.99h13.07c9.8,0,14.88-4.47,14.88-12.04s-5.07-11.95-14.88-11.95Z"/>
    <path class="cls-1" d="M756.7,183.15l5.68,6.62c-4.04,4.9-10.49,7.48-18.4,7.48-15.39,0-25.37-9.89-25.37-23.56s9.98-23.48,23.65-23.48c12.81,0,23.13,8.6,23.22,22.96l-35.17,6.88c2.24,5.25,7.22,8.08,13.93,8.08,5.16,0,9.12-1.63,12.47-4.99ZM729.01,173.09v.09l25.97-4.99c-1.46-5.59-6.28-9.37-12.73-9.37-7.83,0-13.24,5.5-13.24,14.28Z"/>
    <path class="cls-1" d="M772.01,173.69c0-13.76,10.32-23.48,24.85-23.48,8.94,0,16.08,3.7,19.61,10.66l-8.26,4.82c-2.75-4.39-6.88-6.36-11.44-6.36-7.91,0-13.93,5.5-13.93,14.36s6.02,14.36,13.93,14.36c4.56,0,8.69-1.98,11.44-6.36l8.26,4.82c-3.53,6.88-10.66,10.75-19.61,10.75-14.53,0-24.85-9.8-24.85-23.56Z"/>
    <path class="cls-1" d="M824.3,136.71c0-3.61,2.92-6.45,6.88-6.45s6.88,2.67,6.88,6.19c0,3.78-2.84,6.71-6.88,6.71s-6.88-2.84-6.88-6.45ZM825.76,150.73h10.75v45.92h-10.75v-45.92Z"/>
    <path class="cls-1" d="M899.37,173.69c0,14.28-9.89,23.56-23.31,23.56-5.85,0-11.01-1.98-14.71-6.19v22.27h-10.75v-62.61h10.23v6.02c3.61-4.39,8.94-6.54,15.22-6.54,13.42,0,23.31,9.29,23.31,23.48ZM888.45,173.69c0-8.77-5.85-14.36-13.59-14.36s-13.67,5.59-13.67,14.36,5.93,14.36,13.67,14.36,13.59-5.59,13.59-14.36Z"/>
    <path class="cls-1" d="M943.92,183.15l5.68,6.62c-4.04,4.9-10.49,7.48-18.4,7.48-15.39,0-25.37-9.89-25.37-23.56s9.98-23.48,23.65-23.48c12.81,0,23.13,8.6,23.22,22.96l-35.17,6.88c2.24,5.25,7.22,8.08,13.93,8.08,5.16,0,9.12-1.63,12.47-4.99ZM916.23,173.09v.09l25.97-4.99c-1.46-5.59-6.28-9.37-12.73-9.37-7.83,0-13.24,5.5-13.24,14.28Z"/>
    <path class="cls-1" d="M957.77,192.09l4.13-8.17c4.04,2.67,10.23,4.56,16,4.56,6.79,0,9.63-1.89,9.63-5.07,0-8.77-28.38-.52-28.38-18.83,0-8.69,7.83-14.36,20.21-14.36,6.11,0,13.07,1.46,17.2,3.96l-4.13,8.17c-4.39-2.58-8.77-3.44-13.16-3.44-6.54,0-9.63,2.15-9.63,5.16,0,9.29,28.38,1.03,28.38,19.01,0,8.6-7.91,14.19-20.81,14.19-7.65,0-15.31-2.24-19.44-5.16Z"/>
  </g>
  <g>
    <path class="cls-1" d="M239.64,127.88c-3.73,6.46-7.06,13.14-11.41,19.23s-9.23,11.16-14.8,16.04c.67.41,1.64.81,2.43.83,3.46.11,10.59-2.7,13.48-1.32.74.35,1.45,1.24,1.98,1.87,1.51,1.77,6.14,7.97,7.11,9.85,1.65,3.2-.14,4.71-2.06,7.08-4.11,5.09-11.1,10.96-16.49,14.73-1.99,1.39-4.28,2.64-6.4,3.82-.74,1.27,5.62,9.45,4.88,12.77-.38,1.71-4.24,4.64-5.74,5.83-28.66,22.77-73.61,26.38-107.41,14.21-38.02-13.69-78.72-54.4-56.81-97.49,2.27-4.46,6.43-9.39,8.24-13.73,2.91-6.97,3.87-16.17,6.79-23.27,4.41-10.75,12.27-21.58,16.95-32.38.94-1.88,2.96-2.28,4.88-2.44,3.34-.29,9.81-.31,13.11.02,2.32.23,4.52,1.04,4.83,3.65,1,8.56-1.01,18.79.28,27.47,7.16,7.95,13.86,15.84,22.71,22,2.77,1.93,10.35,4.57,7.45,9.14-2.47,3.9-7.74-.05-10.54-1.81-10.37-6.54-18.01-16.14-26.26-25.01l-2.91-.36v13.3c0,1.37,12.8,20.73,14.66,23.11,11.63,14.83,29.48,25.63,48.08,29,13.56,2.46,29.89.83,43.41-1.85,6.5-1.29,16.4-12.81,20.62-17.95.24-1.39-9.47-8.63-2.66-11.51,3.84-1.63,4.98,2.17,6.9,4.19.31.32.26.36.8.25l4.96-9.77c-1.01-.94-3.37-4.18-4.65-4.04-2.33.25-6.07,2.77-8.63,3.01-1.94.18-4.9-.55-7.29-.39-7.51.51-17.03,5.65-24.68,7.69-7.03,1.87-16.22,3.25-23.48,2.72-3.38-.24-7.51-.87-6.19-5.41,1.23-4.2,7.43-2.22,10.82-2.28,14.38-.25,23.06-5.64,35.94-9.16,5.75-1.57,9.68-.55,14.83-1.36,3.01-.47,8.28-3.95,11.09-3.2,4.11,2.75,7.81,6.56,11.17,10.23v2.7ZM73.53,95.7c-.33,1.12,3.01.33,3.66.6l.6-.28,14.61-24.42h-5.97s-12.9,24.1-12.9,24.1ZM95.49,90.87v-8.86c-.48.05-1.54,1.99-1.54,2.12v6.75s1.54,0,1.54,0ZM85.86,106.68v-8.86s-.38,0-.38,0c.09.78-1.93,3.08-1.93,3.27v5.59s2.31,0,2.31,0ZM65.43,119.78l10.41.39v-16.19s-6.17,0-6.17,0l-4.24,15.8ZM83.54,123.44c5.17,11.63,8.91,23.7,16.26,34.23,14.48,20.77,38.03,33.03,63.32,34.2,8.94.41,17.62-1,26.42,1.34,5.69,1.51,8.15,3.91,14.82,2.87,1.03-.16,8.61-4.34,8.91-4.98-.94-2.82-4.25-6.79-.8-9.27,3.68-2.65,6.26,1.67,7.33,4.63l10.51-9.82-4.4-6.39c-3.31.29-7.49,1.73-10.74,1.6-2.2-.09-5.23-1.58-7.75-1.91-9.65-1.25-19.61,2.46-29.25,3.03-27.38,1.62-53.75-8.58-72.08-28.9-7.89-8.74-13.55-19.53-19.52-29.62l-3.02-.06v9.06ZM50.9,151.7c-2.98,16.02,1.96,28.85,11.66,41.28,30.51,39.11,85.91,48.89,130.44,28.93.43-.57-4.6-8.69.36-10.23,4.66-1.45,5.18,2.96,6.77,5.99.29.06,4.31-2.71,4.93-3.16.68-.49,4.14-3.04,4.33-3.4.43-.79-2.53-6.66-3.17-6.87-3.19-.34-6.72.29-9.86-.16-2.76-.4-6.38-2.81-9.54-3.56-8.11-1.94-17.32-.53-25.65-.94-27.73-1.39-53.98-16.44-69.18-39.51-6.47-9.83-10.23-21.05-14.82-31.82-.71-.73-3.77-.29-5.02-.38-3.35-.24-6.74-.68-10.14-.3-4.69,7.84-9.42,14.93-11.13,24.13Z"/>
    <path class="cls-1" d="M143.76,125.25c-3.88-.42-5.89,5.3-2.16,7.2,5.59,2.84,8.38-6.54,2.16-7.2Z"/>
    <path class="cls-1" d="M75.97,191.22c-1.69,1.65-1.08,4.44.45,6.03,12.77,13.3,33.34,22.61,51.37,25.72,4.3.74,11.9,1.89,16.05,1.25,2.93-.46,4.04-4.84,1.36-6.71-2.1-1.46-8.02-1.05-10.92-1.41-17.28-2.18-33.49-8.8-47.06-19.62-2.74-2.18-7.49-8.92-11.25-5.25Z"/>
    <path class="cls-1" d="M69.39,177.67c-5.85-1.27-6.28,7.62-1.02,8.01,4.96.36,5.29-7.08,1.02-8.01Z"/>
  </g>
</svg>